<svg width="40" height="40" viewBox="0 0 40 40" fill="none" xmlns="http://www.w3.org/2000/svg">
    <path
        d="M30.5389 27.2619C30.1439 28.1703 29.6764 29.0064 29.1347 29.7752C28.3963 30.8231 27.7917 31.5486 27.3258 31.9514C26.6035 32.6126 25.8297 32.9512 25.001 32.9705C24.4061 32.9705 23.6887 32.802 22.8536 32.4601C22.0157 32.1199 21.2457 31.9514 20.5417 31.9514C19.8033 31.9514 19.0114 32.1199 18.1644 32.4601C17.316 32.802 16.6326 32.9801 16.1101 32.9978C15.3154 33.0315 14.5234 32.6832 13.7328 31.9514C13.2281 31.5132 12.597 30.7622 11.8408 29.6981C11.0296 28.5619 10.3626 27.2442 9.84011 25.7421C9.28052 24.1195 9 22.5483 9 21.0272C9 19.2848 9.37822 17.782 10.1358 16.5226C10.7312 15.5111 11.5232 14.7131 12.5146 14.1273C13.5059 13.5415 14.5771 13.243 15.7306 13.2239C16.3618 13.2239 17.1895 13.4183 18.218 13.8002C19.2437 14.1835 19.9023 14.3778 20.191 14.3778C20.4069 14.3778 21.1385 14.1506 22.3788 13.6975C23.5517 13.2774 24.5416 13.1034 25.3525 13.1719C27.5499 13.3485 29.2008 14.2108 30.2987 15.7643C28.3334 16.9497 27.3613 18.6099 27.3806 20.7398C27.3984 22.3988 28.0029 23.7793 29.1911 24.8754C29.7296 25.3842 30.3309 25.7774 31 26.0566C30.8549 26.4755 30.7017 26.8767 30.5389 27.2619ZM25.4992 7.52015C25.4992 8.82044 25.022 10.0345 24.0708 11.1583C22.9229 12.4942 21.5345 13.2661 20.0289 13.1443C20.0097 12.9883 19.9985 12.8241 19.9985 12.6516C19.9985 11.4033 20.5444 10.0674 21.5139 8.97514C21.9978 8.4221 22.6134 7.96225 23.3598 7.59542C24.1046 7.23406 24.8092 7.03422 25.4718 7C25.4911 7.17383 25.4992 7.34767 25.4992 7.52013V7.52015Z"
        fill="white" />
</svg>