<svg width="32" height="32" viewBox="0 0 32 32" fill="none" xmlns="http://www.w3.org/2000/svg">
<path d="M15.8466 24.2646C12.8152 24.2646 10.3408 21.7902 10.3408 18.7587C10.3408 18.2276 10.7812 17.7871 11.3124 17.7871C11.8435 17.7871 12.284 18.2276 12.284 18.7587C12.284 20.7279 13.8775 22.3214 15.8466 22.3214C17.8158 22.3214 19.4093 20.7279 19.4093 18.7587C19.4093 18.2276 19.8497 17.7871 20.3809 17.7871C20.9121 17.7871 21.3525 18.2276 21.3525 18.7587C21.3525 21.7902 18.8781 24.2646 15.8466 24.2646Z" fill="#6A6051"/>
<path d="M7.02539 8.5626C6.77925 8.5626 6.52015 8.45896 6.33878 8.27759C5.96308 7.9019 5.96308 7.28006 6.33878 6.90436L11.0414 2.20169C11.4171 1.826 12.039 1.826 12.4147 2.20169C12.7904 2.57739 12.7904 3.19923 12.4147 3.57492L7.71201 8.27759C7.51768 8.45896 7.27154 8.5626 7.02539 8.5626Z" fill="#6A6051"/>
<path d="M24.6679 8.5626C24.4218 8.5626 24.1756 8.47192 23.9813 8.27759L19.2786 3.57492C18.9029 3.19923 18.9029 2.57739 19.2786 2.20169C19.6543 1.826 20.2762 1.826 20.6519 2.20169L25.3545 6.90436C25.7302 7.28006 25.7302 7.9019 25.3545 8.27759C25.1732 8.45896 24.9141 8.5626 24.6679 8.5626Z" fill="#6A6051"/>
<path d="M26.4827 14.0296C26.392 14.0296 26.3013 14.0296 26.2107 14.0296H25.9127H5.48264C4.57579 14.0425 3.53939 14.0425 2.788 13.2911C2.19207 12.7081 1.92001 11.8013 1.92001 10.4669C1.92001 6.9043 4.52397 6.9043 5.76765 6.9043H25.9257C27.1693 6.9043 29.7733 6.9043 29.7733 10.4669C29.7733 11.8142 29.5012 12.7081 28.9053 13.2911C28.2316 13.9648 27.3248 14.0296 26.4827 14.0296ZM5.76765 12.0863H26.2236C26.8066 12.0993 27.3507 12.0993 27.5321 11.9179C27.6228 11.8272 27.8171 11.5163 27.8171 10.4669C27.8171 9.00301 27.4543 8.84755 25.9127 8.84755H5.76765C4.22601 8.84755 3.86327 9.00301 3.86327 10.4669C3.86327 11.5163 4.07055 11.8272 4.14828 11.9179C4.32965 12.0863 4.88671 12.0863 5.45673 12.0863H5.76765Z" fill="#6A6051"/>
<path d="M19.5915 29.7705H11.7797C7.14182 29.7705 6.10542 27.0111 5.70381 24.6144L3.87715 13.4083C3.78647 12.8772 4.14921 12.3849 4.68036 12.2942C5.19856 12.2035 5.70381 12.5662 5.79449 13.0974L7.62115 24.2905C7.99685 26.5836 8.77415 27.8272 11.7797 27.8272H19.5915C22.921 27.8272 23.2967 26.6613 23.7242 24.4071L25.9006 13.0715C26.0043 12.5403 26.5095 12.1905 27.0407 12.3071C27.5718 12.4108 27.9087 12.916 27.805 13.4472L25.6286 24.7828C25.1233 27.4127 24.2813 29.7705 19.5915 29.7705Z" fill="#6A6051"/>
</svg>
