<svg width="18" height="18" viewBox="0 0 18 18" fill="none" xmlns="http://www.w3.org/2000/svg">
<path d="M14.3332 8.83339H3.66649C3.51316 8.83339 3.37316 8.76672 3.27982 8.64672C3.18649 8.53339 3.14649 8.37339 3.17982 8.22672L3.93316 4.62672C4.17982 3.46005 4.67982 2.38672 6.65982 2.38672H11.3465C13.3265 2.38672 13.8265 3.46672 14.0732 4.62672L14.8265 8.23339C14.8598 8.38005 14.8198 8.53339 14.7265 8.65339C14.6265 8.76672 14.4865 8.83339 14.3332 8.83339ZM4.27982 7.83339H13.7132L13.0865 4.83339C12.8998 3.96005 12.6798 3.38672 11.3398 3.38672H6.65982C5.31982 3.38672 5.09982 3.96005 4.91316 4.83339L4.27982 7.83339Z" fill="#216ADD"/>
<path d="M14.3064 16.1668H13.0531C11.9731 16.1668 11.7664 15.5468 11.6331 15.1402L11.4997 14.7402C11.3264 14.2335 11.3064 14.1668 10.7064 14.1668H7.29307C6.69306 14.1668 6.65307 14.2802 6.49973 14.7402L6.3664 15.1402C6.2264 15.5535 6.0264 16.1668 4.9464 16.1668H3.69307C3.1664 16.1668 2.65973 15.9468 2.3064 15.5602C1.95973 15.1802 1.79307 14.6735 1.83973 14.1668L2.21307 10.1068C2.31307 9.00683 2.6064 7.8335 4.7464 7.8335H13.2531C15.3931 7.8335 15.6797 9.00683 15.7864 10.1068L16.1597 14.1668C16.2064 14.6735 16.0397 15.1802 15.6931 15.5602C15.3397 15.9468 14.8331 16.1668 14.3064 16.1668ZM7.29307 13.1668H10.7064C11.9197 13.1668 12.2064 13.7068 12.4464 14.4135L12.5864 14.8268C12.6997 15.1668 12.6997 15.1735 13.0597 15.1735H14.3131C14.5597 15.1735 14.7931 15.0735 14.9597 14.8935C15.1197 14.7202 15.1931 14.5002 15.1731 14.2668L14.7997 10.2068C14.7131 9.30683 14.6064 8.84016 13.2664 8.84016H4.7464C3.39973 8.84016 3.29307 9.30683 3.21307 10.2068L2.83973 14.2668C2.81973 14.5002 2.89306 14.7202 3.05307 14.8935C3.21307 15.0735 3.45307 15.1735 3.69973 15.1735H4.95306C5.31307 15.1735 5.31307 15.1668 5.4264 14.8335L5.55973 14.4268C5.7264 13.8935 5.97306 13.1668 7.29307 13.1668Z" fill="#216ADD"/>
<path d="M3.66642 6.8335H2.99976C2.72642 6.8335 2.49976 6.60683 2.49976 6.3335C2.49976 6.06016 2.72642 5.8335 2.99976 5.8335H3.66642C3.93976 5.8335 4.16642 6.06016 4.16642 6.3335C4.16642 6.60683 3.93976 6.8335 3.66642 6.8335Z" fill="#216ADD"/>
<path d="M14.9997 6.8335H14.333C14.0597 6.8335 13.833 6.60683 13.833 6.3335C13.833 6.06016 14.0597 5.8335 14.333 5.8335H14.9997C15.273 5.8335 15.4997 6.06016 15.4997 6.3335C15.4997 6.60683 15.273 6.8335 14.9997 6.8335Z" fill="#216ADD"/>
<path d="M8.99976 4.83333C8.72642 4.83333 8.49976 4.60667 8.49976 4.33333V3C8.49976 2.72667 8.72642 2.5 8.99976 2.5C9.27309 2.5 9.49976 2.72667 9.49976 3V4.33333C9.49976 4.60667 9.27309 4.83333 8.99976 4.83333Z" fill="#216ADD"/>
<path d="M9.99976 4.8335H7.99976C7.72642 4.8335 7.49976 4.60683 7.49976 4.3335C7.49976 4.06016 7.72642 3.8335 7.99976 3.8335H9.99976C10.2731 3.8335 10.4998 4.06016 10.4998 4.3335C10.4998 4.60683 10.2731 4.8335 9.99976 4.8335Z" fill="#216ADD"/>
<path d="M6.99976 11.5H4.99976C4.72642 11.5 4.49976 11.2733 4.49976 11C4.49976 10.7267 4.72642 10.5 4.99976 10.5H6.99976C7.27309 10.5 7.49976 10.7267 7.49976 11C7.49976 11.2733 7.27309 11.5 6.99976 11.5Z" fill="#216ADD"/>
<path d="M12.9998 11.5H10.9998C10.7264 11.5 10.4998 11.2733 10.4998 11C10.4998 10.7267 10.7264 10.5 10.9998 10.5H12.9998C13.2731 10.5 13.4998 10.7267 13.4998 11C13.4998 11.2733 13.2731 11.5 12.9998 11.5Z" fill="#216ADD"/>
</svg>
