<svg fill="none" height="14" viewBox="0 0 14 14" width="14" xmlns="http://www.w3.org/2000/svg"><path d="m7 .25c.88642 0 1.76417.174594 2.58311.513813.81899.339217 1.56309.836417 2.18989 1.463217.6268.62679 1.124 1.37091 1.4632 2.18986.3392.81894.5138 1.69669.5138 2.58311s-.1746 1.76417-.5138 2.58311c-.3392.81899-.8364 1.56309-1.4632 2.18989s-1.3709 1.124-2.18989 1.4632c-.81894.3392-1.69669.5138-2.58311.5138-1.79021 0-3.5071-.7112-4.77297-1.977-1.265871-1.2659-1.97703-2.98279-1.97703-4.773s.711159-3.5071 1.97703-4.77297c1.26587-1.265871 2.98276-1.97703 4.77297-1.97703zm0 1.125c-1.49184 0-2.92258.59263-3.97748 1.64752-1.05489 1.0549-1.64752 2.48564-1.64752 3.97748s.59263 2.92258 1.64752 3.9775c1.0549 1.0549 2.48564 1.6475 3.97748 1.6475s2.92258-.5926 3.9775-1.6475c1.0549-1.05492 1.6475-2.48566 1.6475-3.9775s-.5926-2.92258-1.6475-3.97748c-1.05492-1.05489-2.48566-1.64752-3.9775-1.64752zm-.84375 6.79725 3.22875-3.23775c.09903-.10004.23196-.15932.37256-.16614.1406-.00681.27864.03935.38684.12935.1083.09001.1788.21732.1978.3568.0189.13949-.0151.28101-.0955.39661l-.0652.07875-3.627 3.636c-.09293.09336-.21568.15114-.34685.16327-.13116.01213-.26242-.02216-.3709-.09689l-.07875-.06525-1.96875-1.96875c-.09966-.09921-.15854-.23215-.16504-.37263-.0065-.14047.03985-.27828.12991-.38628.09007-.10799.21732-.17833.35667-.19716.13936-.01883.28071.01522.39621.09545l.07875.06412z" fill="#5a8063"/></svg>