<svg fill="none" height="16" viewBox="0 0 16 16" width="16" xmlns="http://www.w3.org/2000/svg">
    <path
        d="m5.36856 13.0024c-.11726-.1173-.18313-.2764-.18313-.4422 0-.1659.06587-.3249.18313-.4422l3.9362-3.93623-3.9362-3.9362c-.11393-.11797-.17698-.27597-.17556-.43997.00143-.164.06721-.32088.18318-.43685s.27285-.18175.43685-.18318c.16401-.00142.32201.06162.43997.17556l4.3784 4.37842c.1173.1173.1832.27636.1832.44222s-.0659.32492-.1832.44222l-4.3784 4.37841c-.11729.1173-.27636.1831-.44222.1831-.16585 0-.32492-.0658-.44222-.1831z"
        fill="#807e7c" />
</svg>