<svg fill="none" height="7" viewBox="0 0 12 7" width="12" xmlns="http://www.w3.org/2000/svg">
    <path
        d="m.219731.464804c.140756-.140713.331636-.219761.530664-.219761.199029 0 .389905.079048.530665.219761l4.72344 4.723436 4.7234-4.723436c.1416-.136726.3312-.21238.528-.21067s.3851.080648.5242.219813c.1392.139165.2181.327421.2198.524223.0018.1968-.0739.3864-.2106.52796l-5.25413 5.25411c-.14076.14071-.33164.21976-.53067.21976s-.38991-.07905-.53066-.21976l-5.254109-5.25411c-.1407133-.14075-.21976177-.33163-.21976178-.530661-.00000001-.199029.07904838-.389909.21976178-.530665z"
        fill="#807e7c" />
</svg>