<svg fill="none" height="14" viewBox="0 0 14 14" width="14" xmlns="http://www.w3.org/2000/svg"><path d="m7 .25c.88642 0 1.76417.174594 2.58311.513813.81899.339217 1.56309.836417 2.18989 1.463217.6268.62679 1.124 1.37091 1.4632 2.18986.3392.81894.5138 1.69669.5138 2.58311s-.1746 1.76417-.5138 2.58311c-.3392.81899-.8364 1.56309-1.4632 2.18989s-1.3709 1.124-2.18989 1.4632c-.81894.3392-1.69669.5138-2.58311.5138-1.79021 0-3.5071-.7112-4.77297-1.977-1.265871-1.2659-1.97703-2.98279-1.97703-4.773s.711159-3.5071 1.97703-4.77297c1.26587-1.265871 2.98276-1.97703 4.77297-1.97703zm0 1.125c-1.49184 0-2.92258.59263-3.97748 1.64752-1.05489 1.0549-1.64752 2.48564-1.64752 3.97748s.59263 2.92258 1.64752 3.9775c1.0549 1.0549 2.48564 1.6475 3.97748 1.6475s2.92258-.5926 3.9775-1.6475c1.0549-1.05492 1.6475-2.48566 1.6475-3.9775s-.5926-2.92258-1.6475-3.97748c-1.05492-1.05489-2.48566-1.64752-3.9775-1.64752zm-2.43112 3.33675.06412-.07875c.09321-.09301.2161-.15037.34726-.16209s.26227.02295.37049.09797l.07875.06412 1.5705 1.57163 1.5705-1.57163c.09321-.09301.2161-.15037.34726-.16209.13115-.01172.26227.02295.37049.09797l.07875.06412c.09301.09321.15037.2161.16209.34726.01171.13116-.02295.26227-.09796.37049l-.06413.07875-1.57163 1.5705 1.57163 1.5705c.09301.09321.15037.2161.16209.34726.01171.13115-.02295.26227-.09796.37049l-.06413.07875c-.09321.09301-.2161.15037-.34726.16209-.13115.01171-.26227-.02295-.37049-.09796l-.07875-.06413-1.5705-1.57163-1.5705 1.57163c-.09321.09301-.2161.15037-.34726.16209-.13116.01171-.26227-.02295-.37049-.09796l-.07875-.06413c-.09301-.09321-.15037-.2161-.16209-.34726-.01172-.13115.02295-.26227.09797-.37049l.06412-.07875 1.57163-1.5705-1.57163-1.5705c-.09301-.09321-.15037-.2161-.16209-.34726s.02295-.26227.09797-.37049z" fill="#ea005a"/></svg>