<svg width="22" height="22" viewBox="0 0 22 22" fill="none" xmlns="http://www.w3.org/2000/svg">
<path d="M20.3023 9.85714C20.6837 9.85714 21 9.54629 21 9.17143V8.25714C21 4.22514 19.7535 3 15.6512 3H9.83721V5.05714C9.83721 5.432 9.52093 5.74286 9.13953 5.74286C8.75814 5.74286 8.44186 5.432 8.44186 5.05714V3H6.34884C2.24651 3 1 4.22514 1 8.25714V8.71429C1 9.08914 1.31628 9.4 1.69767 9.4C2.5907 9.4 3.32558 10.1223 3.32558 11C3.32558 11.8777 2.5907 12.6 1.69767 12.6C1.31628 12.6 1 12.9109 1 13.2857V13.7429C1 17.7749 2.24651 19 6.34884 19H8.44186V16.9429C8.44186 16.568 8.75814 16.2571 9.13953 16.2571C9.52093 16.2571 9.83721 16.568 9.83721 16.9429V19H15.6512C19.7535 19 21 17.7749 21 13.7429C21 13.368 20.6837 13.0571 20.3023 13.0571C19.4093 13.0571 18.6744 12.3349 18.6744 11.4571C18.6744 10.5794 19.4093 9.85714 20.3023 9.85714ZM9.83721 12.984C9.83721 13.3589 9.52093 13.6697 9.13953 13.6697C8.75814 13.6697 8.44186 13.3589 8.44186 12.984V9.016C8.44186 8.64114 8.75814 8.33029 9.13953 8.33029C9.52093 8.33029 9.83721 8.64114 9.83721 9.016V12.984Z" fill="#6A6051"/>
</svg>
