<svg width="22" height="22" viewBox="0 0 22 22" fill="none" xmlns="http://www.w3.org/2000/svg">
<path d="M15.6512 19H6.34884C2.24651 19 1 17.7749 1 13.7429V13.2857C1 12.9109 1.31628 12.6 1.69767 12.6C2.5907 12.6 3.32558 11.8777 3.32558 11C3.32558 10.1223 2.5907 9.4 1.69767 9.4C1.31628 9.4 1 9.08914 1 8.71429V8.25714C1 4.22514 2.24651 3 6.34884 3H15.6512C19.7535 3 21 4.22514 21 8.25714V9.17143C21 9.54629 20.6837 9.85714 20.3023 9.85714C19.4093 9.85714 18.6744 10.5794 18.6744 11.4571C18.6744 12.3349 19.4093 13.0571 20.3023 13.0571C20.6837 13.0571 21 13.368 21 13.7429C21 17.7749 19.7535 19 15.6512 19ZM2.39535 13.8891C2.41395 17.0343 3.07442 17.6286 6.34884 17.6286H15.6512C18.7581 17.6286 19.5116 17.0891 19.5953 14.3463C18.2651 14.0354 17.2791 12.856 17.2791 11.4571C17.2791 10.0583 18.2744 8.87886 19.6047 8.568V8.25714C19.6047 4.99314 18.9814 4.37143 15.6512 4.37143H6.34884C3.07442 4.37143 2.41395 4.96571 2.39535 8.11086C3.72558 8.42171 4.72093 9.60114 4.72093 11C4.72093 12.3989 3.72558 13.5783 2.39535 13.8891Z" fill="#807E7C"/>
<path d="M9.13957 6.65714C8.75817 6.65714 8.44189 6.34629 8.44189 5.97143V3.68571C8.44189 3.31086 8.75817 3 9.13957 3C9.52096 3 9.83724 3.31086 9.83724 3.68571V5.97143C9.83724 6.34629 9.52096 6.65714 9.13957 6.65714Z" fill="#807E7C"/>
<path d="M9.13957 13.3591C8.75817 13.3591 8.44189 13.0482 8.44189 12.6734V9.31795C8.44189 8.94306 8.75817 8.6322 9.13957 8.6322C9.52096 8.6322 9.83724 8.94306 9.83724 9.31795V12.6734C9.83724 13.0574 9.52096 13.3591 9.13957 13.3591Z" fill="#807E7C"/>
<path d="M9.13957 19C8.75817 19 8.44189 18.6892 8.44189 18.3143V16.0286C8.44189 15.6538 8.75817 15.3429 9.13957 15.3429C9.52096 15.3429 9.83724 15.6538 9.83724 16.0286V18.3143C9.83724 18.6892 9.52096 19 9.13957 19Z" fill="#807E7C"/>
</svg>
