<svg width="22" height="22" viewBox="0 0 22 22" fill="none" xmlns="http://www.w3.org/2000/svg">
<path d="M16.3074 20.845H5.69242C3.18075 20.845 1.14575 18.8009 1.14575 16.2892V9.4967C1.14575 8.25003 1.91575 6.68253 2.90575 5.91253L7.84659 2.06253C9.33158 0.907528 11.7058 0.852528 13.2458 1.93419L18.9108 5.90336C20.0016 6.6642 20.8541 8.29586 20.8541 9.62503V16.2984C20.8541 18.8009 18.8191 20.845 16.3074 20.845ZM8.68992 3.1442L3.74909 6.99419C3.09825 7.50753 2.52075 8.6717 2.52075 9.4967V16.2892C2.52075 18.04 3.94159 19.47 5.69242 19.47H16.3074C18.0583 19.47 19.4791 18.0492 19.4791 16.2984V9.62503C19.4791 8.74503 18.8466 7.52586 18.1224 7.03086L12.4574 3.06169C11.4124 2.32836 9.68908 2.36503 8.68992 3.1442Z" fill="#9197A3"/>
<path d="M6.87491 15.8125C6.70074 15.8125 6.52657 15.7483 6.38907 15.6108C6.12324 15.345 6.12324 14.905 6.38907 14.6392L9.32241 11.7058C9.46907 11.5592 9.66157 11.4858 9.87241 11.5042C10.0741 11.5225 10.2574 11.6325 10.3766 11.8067L11.3757 13.31L14.6299 10.0558C14.8957 9.78999 15.3357 9.78999 15.6016 10.0558C15.8674 10.3217 15.8674 10.7617 15.6016 11.0275L11.7516 14.8775C11.6049 15.0242 11.4124 15.0975 11.2016 15.0792C10.9999 15.0608 10.8166 14.9508 10.6974 14.7767L9.69824 13.2733L7.36074 15.6108C7.22324 15.7483 7.04907 15.8125 6.87491 15.8125Z" fill="#9197A3"/>
<path d="M15.1251 13.0623C14.7492 13.0623 14.4376 12.7507 14.4376 12.3748V11.229H13.2917C12.9159 11.229 12.6042 10.9173 12.6042 10.5415C12.6042 10.1657 12.9159 9.854 13.2917 9.854H15.1251C15.5009 9.854 15.8126 10.1657 15.8126 10.5415V12.3748C15.8126 12.7507 15.5009 13.0623 15.1251 13.0623Z" fill="#9197A3"/>
</svg>
