<svg width="14" height="14" viewBox="0 0 14 14" fill="none" xmlns="http://www.w3.org/2000/svg">
<path d="M12.5271 1.47734C11.0015 -0.0482447 9.50738 -0.0875638 7.94248 1.47734L6.99096 2.42886C6.91232 2.5075 6.88087 2.63332 6.91232 2.74341C7.50997 4.82733 9.1771 6.49446 11.261 7.09211C11.2925 7.09997 11.3239 7.10784 11.3554 7.10784C11.4419 7.10784 11.5205 7.07638 11.5834 7.01347L12.5271 6.06195C13.3056 5.29129 13.6831 4.54423 13.6831 3.7893C13.6909 3.01078 13.3135 2.25586 12.5271 1.47734Z" fill="#8C7E6C"/>
<path d="M9.84534 7.80742C9.61728 7.69733 9.3971 7.58724 9.18477 7.46142C9.01177 7.35919 8.84663 7.24909 8.68149 7.13113C8.5478 7.04463 8.39053 6.91881 8.24112 6.79299C8.22539 6.78513 8.17034 6.73794 8.10743 6.67503C7.84792 6.45485 7.55696 6.17175 7.29746 5.85719C7.27386 5.84147 7.23455 5.78642 7.1795 5.71565C7.10086 5.62128 6.96718 5.464 6.84922 5.28314C6.75485 5.16518 6.64476 4.99217 6.54253 4.81917C6.41671 4.60685 6.30661 4.39452 6.19652 4.17434C6.05217 3.86502 5.6462 3.77313 5.40484 4.0145L0.982803 8.43653C0.880573 8.53876 0.786207 8.73535 0.762615 8.86904L0.337969 11.8809C0.259331 12.4156 0.408743 12.9189 0.739024 13.2571C1.02212 13.5323 1.41531 13.6817 1.83996 13.6817C1.93433 13.6817 2.02869 13.6738 2.12306 13.6581L5.14277 13.2335C5.28432 13.2099 5.48091 13.1155 5.57528 13.0133L10.0046 8.58395C10.2411 8.34741 10.1523 7.94043 9.84534 7.80742Z" fill="#8C7E6C"/>
</svg>
