<svg fill="none" height="80" viewBox="0 0 80 80" width="80" xmlns="http://www.w3.org/2000/svg"><path d="m40 0c22.092 0 40 17.908 40 40s-17.908 40-40 40-40-17.908-40-40 17.908-40 40-40zm-12.232 24.232-.204-.182c-.4436-.3558-.9953-.5496-1.564-.5496s-1.1204.1938-1.564.5496l-.204.182-.182.204c-.3558.4436-.5496.9953-.5496 1.564s.1938 1.1204.5496 1.564l.182.204 12.234 12.232-12.234 12.232-.182.204c-.3558.4436-.5496.9953-.5496 1.564s.1938 1.1204.5496 1.564l.182.204.204.182c.4436.3558.9953.5496 1.564.5496s1.1204-.1938 1.564-.5496l.204-.182 12.232-12.234 12.232 12.234.204.182c.4436.3558.9953.5496 1.564.5496s1.1204-.1938 1.564-.5496l.204-.182.182-.204c.3558-.4436.5496-.9953.5496-1.564s-.1938-1.1204-.5496-1.564l-.182-.204-12.234-12.232 12.234-12.232.182-.204c.3558-.4436.5496-.9953.5496-1.564s-.1938-1.1204-.5496-1.564l-.182-.204-.204-.182c-.4436-.3558-.9953-.5496-1.564-.5496s-1.1204.1938-1.564.5496l-.204.182-12.232 12.234z" fill="#c45a53"/></svg>