<svg width="40" height="40" viewBox="0 0 40 40" fill="none" xmlns="http://www.w3.org/2000/svg">
<path d="M32.2 7H8.46667C8.07768 7 7.70463 7.15452 7.42958 7.42958C7.15452 7.70463 7 8.07768 7 8.46667V32.2C7 32.589 7.15452 32.962 7.42958 33.2371C7.70463 33.5121 8.07768 33.6667 8.46667 33.6667H21.24V23.3333H17.7733V19.3333H21.24V16.3333C21.1682 15.629 21.2513 14.9175 21.4836 14.2487C21.7159 13.5799 22.0917 12.9701 22.5846 12.4619C23.0776 11.9537 23.6757 11.5595 24.3371 11.307C24.9985 11.0544 25.7071 10.9497 26.4133 11C27.4511 10.9936 28.4884 11.047 29.52 11.16V14.76H27.4C25.72 14.76 25.4 15.56 25.4 16.72V19.2933H29.4L28.88 23.2933H25.4V33.6667H32.2C32.3926 33.6667 32.5833 33.6287 32.7613 33.555C32.9392 33.4813 33.1009 33.3733 33.2371 33.2371C33.3733 33.1009 33.4813 32.9392 33.555 32.7613C33.6287 32.5833 33.6667 32.3926 33.6667 32.2V8.46667C33.6667 8.27406 33.6287 8.08334 33.555 7.9054C33.4813 7.72745 33.3733 7.56577 33.2371 7.42958C33.1009 7.29338 32.9392 7.18535 32.7613 7.11164C32.5833 7.03794 32.3926 7 32.2 7Z" fill="white"/>
</svg>
