<svg width="22" height="22" viewBox="0 0 22 22" fill="none" xmlns="http://www.w3.org/2000/svg">
<path d="M18.6304 6.07738L13.1638 2.24844C11.6738 1.20332 9.3866 1.26033 7.95356 2.37195L3.1988 6.08688C2.24975 6.82797 1.5 8.34814 1.5 9.54523V16.101C1.5 18.5238 3.46454 20.5 5.88462 20.5H16.1154C18.5355 20.5 20.5 18.5333 20.5 16.1105V9.66875C20.5 8.38615 19.6743 6.80897 18.6304 6.07738ZM11.7118 16.6996C11.7118 17.0891 11.3891 17.4121 11 17.4121C10.6109 17.4121 10.2882 17.0891 10.2882 16.6996V13.8492C10.2882 13.4597 10.6109 13.1367 11 13.1367C11.3891 13.1367 11.7118 13.4597 11.7118 13.8492V16.6996Z" fill="#6A6051"/>
</svg>
