<svg width="22" height="22" viewBox="0 0 22 22" fill="none" xmlns="http://www.w3.org/2000/svg">
<path d="M16.1167 20.5H5.88326C3.46186 20.5 1.5 18.5272 1.5 16.1031V9.5476C1.5 8.3444 2.24233 6.83159 3.19674 6.08845L7.96 2.37277C9.39163 1.25807 11.6805 1.20499 13.1651 2.24892L18.6265 6.0796C19.6781 6.81389 20.5 8.38863 20.5 9.67145V16.112C20.5 18.5272 18.5381 20.5 16.1167 20.5ZM8.77302 3.4167L4.00977 7.13238C3.38233 7.6278 2.82558 8.75135 2.82558 9.5476V16.1031C2.82558 17.7929 4.19535 19.173 5.88326 19.173H16.1167C17.8047 19.173 19.1744 17.8017 19.1744 16.112V9.67145C19.1744 8.82213 18.5647 7.6455 17.8665 7.16777L12.4051 3.33708C11.3977 2.62933 9.73628 2.66472 8.77302 3.4167Z" fill="#807E7C"/>
<path d="M10.9999 16.9613C10.6376 16.9613 10.3372 16.6605 10.3372 16.2978V13.6437C10.3372 13.281 10.6376 12.9802 10.9999 12.9802C11.3623 12.9802 11.6627 13.281 11.6627 13.6437V16.2978C11.6627 16.6605 11.3623 16.9613 10.9999 16.9613Z" fill="#807E7C"/>
</svg>
