<svg width="18" height="18" viewBox="0 0 18 18" fill="none" xmlns="http://www.w3.org/2000/svg">
<path d="M12.0069 3.80701C11.0936 3.2769 10.056 2.99844 9 3.00001C5.6862 3.00001 3 5.68621 3 9.00001C3 12.3138 5.6862 15 9 15C12.3138 15 15 12.3138 15 9.00001C15 7.91191 14.7102 6.89101 14.2038 6.01141" stroke="#216ADD" stroke-width="1.1" stroke-linecap="round" stroke-linejoin="round"/>
<path d="M11.3849 6.61523C11.3849 6.61523 10.3685 9.32873 9.8999 9.79733C9.67485 10.0224 9.36962 10.1488 9.05135 10.1488C8.73308 10.1488 8.42785 10.0224 8.2028 9.79733C7.97775 9.57228 7.85132 9.26705 7.85132 8.94878C7.85132 8.63052 7.97775 8.32528 8.2028 8.10023C8.6714 7.63163 11.3849 6.61523 11.3849 6.61523Z" stroke="#216ADD" stroke-width="1.1" stroke-linejoin="round"/>
</svg>
