<svg fill="none" height="28" viewBox="0 0 25 28" width="25" xmlns="http://www.w3.org/2000/svg">
    <path
        d="m24.4022 9.09683c-1.4197-6.2283-6.8687-9.0323769-11.6552-9.0323769 0 0 0 0-.0135 0-4.77304 0-10.23558 2.7905969-11.6553 9.0188869-1.58197 6.95626 2.69071 12.84756 6.55775 16.55486 1.43324 1.3751 3.27215 2.0626 5.11105 2.0626s3.6777-.6875 5.0975-2.0626c3.867-3.7073 8.1397-9.5851 6.5577-16.54137zm-11.6552 6.75407c-2.3527 0-4.25921-1.9009-4.25921-4.2466s1.90651-4.24654 4.25921-4.24654 4.2591 1.90084 4.2591 4.24654-1.9064 4.2466-4.2591 4.2466z"
        fill="#8c7e6c" />
</svg>