<svg width="21" height="20" viewBox="0 0 21 20" fill="none" xmlns="http://www.w3.org/2000/svg">
<path d="M10 13.5664C10.6001 13.5664 11.0867 13.0799 11.0867 12.4797C11.0867 11.8796 10.6001 11.3931 10 11.3931C9.39985 11.3931 8.91333 11.8796 8.91333 12.4797C8.91333 13.0799 9.39985 13.5664 10 13.5664Z" fill="white"/>
<path d="M14.1866 8.3535V7.52016C14.1866 5.72016 13.7533 3.3335 9.99992 3.3335C6.24659 3.3335 5.81325 5.72016 5.81325 7.52016V8.3535C3.94659 8.58683 3.33325 9.5335 3.33325 11.8602V13.1002C3.33325 15.8335 4.16659 16.6668 6.89992 16.6668H13.0999C15.8333 16.6668 16.6666 15.8335 16.6666 13.1002V11.8602C16.6666 9.5335 16.0533 8.58683 14.1866 8.3535ZM9.99992 14.4935C8.88658 14.4935 7.98658 13.5868 7.98658 12.4802C7.98658 11.3668 8.89325 10.4668 9.99992 10.4668C11.1066 10.4668 12.0133 11.3735 12.0133 12.4802C12.0133 13.5935 11.1133 14.4935 9.99992 14.4935ZM6.89992 8.2935C6.84659 8.2935 6.79992 8.2935 6.74658 8.2935V7.52016C6.74658 5.56683 7.29992 4.26683 9.99992 4.26683C12.6999 4.26683 13.2533 5.56683 13.2533 7.52016V8.30016C13.1999 8.30016 13.1533 8.30016 13.0999 8.30016H6.89992V8.2935Z" fill="white"/>
</svg>
