<svg fill="none" height="24" viewBox="0 0 20 24" width="20" xmlns="http://www.w3.org/2000/svg">
    <path
        d="m10 .25c2.5859 0 5.0658 1.02723 6.8943 2.85571s2.8557 4.30843 2.8557 6.89429c0 4.12-2.895 8.61-8.61 13.518-.3178.273-.7229.4229-1.14187.4225-.41893-.0003-.82383-.151-1.14113-.4245l-.378-.328c-5.462-4.78-8.229-9.16-8.229-13.188 0-2.58586 1.02723-5.06581 2.85571-6.89429s4.30843-2.85571 6.89429-2.85571zm0 1.5c-2.18804 0-4.28646.86919-5.83363 2.41637-1.54718 1.54717-2.41637 3.64559-2.41637 5.83363 0 3.502 2.548 7.537 7.714 12.057l.373.323c.04535.039.10319.0604.163.0604.0598 0 .1176-.0214.163-.0604 5.416-4.652 8.087-8.795 8.087-12.38 0-1.08341-.2134-2.1562-.628-3.15714-.4146-1.00093-1.0223-1.91041-1.7884-2.67649s-1.6755-1.37377-2.6765-1.78838c-1.0009-.4146-2.0737-.62799-3.1571-.62799zm0 4.5c.9946 0 1.9484.39509 2.6517 1.09835.7032.70326 1.0983 1.65709 1.0983 2.65165 0 .9946-.3951 1.9484-1.0983 2.6517-.7033.7032-1.6571 1.0983-2.6517 1.0983-.99456 0-1.94839-.3951-2.65165-1.0983-.70326-.7033-1.09835-1.6571-1.09835-2.6517 0-.99456.39509-1.94839 1.09835-2.65165s1.65709-1.09835 2.65165-1.09835zm0 1.5c-.59674 0-1.16903.23705-1.59099.65901s-.65901.99425-.65901 1.59099c0 .5967.23705 1.169.65901 1.591.42196.4219.99425.659 1.59099.659.5967 0 1.169-.2371 1.591-.659.4219-.422.659-.9943.659-1.591 0-.59674-.2371-1.16903-.659-1.59099-.422-.42196-.9943-.65901-1.591-.65901z"
        fill="#8c7e6c" />
</svg>