<svg width="22" height="22" viewBox="0 0 22 22" fill="none" xmlns="http://www.w3.org/2000/svg">
<g clip-path="url(#clip0_1132_47)">
<path d="M2.47029 2.05127L18.3013 17.8822C18.6016 18.1827 18.7704 18.5901 18.7704 19.0149C18.7704 19.4397 18.6016 19.8472 18.3013 20.1476C18.0008 20.4478 17.5934 20.6165 17.1686 20.6165C16.7438 20.6165 16.3364 20.4478 16.036 20.1476L12.1688 16.2138C11.9157 15.9568 11.7737 15.6107 11.7734 15.25V15.0124C11.7735 14.8302 11.7373 14.6499 11.6671 14.4819C11.5969 14.3139 11.494 14.1615 11.3644 14.0335L10.8651 13.5725C10.6956 13.4161 10.4895 13.3048 10.2657 13.249C10.042 13.1931 9.80774 13.1944 9.58462 13.2528C9.23278 13.3446 8.86304 13.3428 8.5121 13.2476C8.16115 13.1525 7.8412 12.9671 7.584 12.7101L3.91318 9.03885C1.73552 6.86119 0.934153 3.57279 2.47029 2.05127Z" stroke="#807E7C" stroke-width="1.4" stroke-linejoin="round"/>
<path d="M17.1876 1.375L13.8683 4.69434C13.6129 4.94971 13.4102 5.25289 13.272 5.58658C13.1338 5.92027 13.0626 6.27791 13.0626 6.6391V7.27762C13.0626 7.36796 13.0448 7.45742 13.0103 7.54088C12.9757 7.62434 12.925 7.70016 12.8611 7.76402L12.3751 8.25M13.7501 9.625L14.2361 9.13902C14.3 9.07512 14.3758 9.02443 14.4592 8.98986C14.5427 8.95528 14.6322 8.93749 14.7225 8.9375H15.361C15.7222 8.9375 16.0799 8.86635 16.4135 8.72812C16.7472 8.58988 17.0504 8.38726 17.3058 8.13184L20.6251 4.8125M18.9064 3.09375L15.4689 6.53125M8.59387 15.8125L4.30903 20.1214C3.98671 20.4436 3.54962 20.6246 3.09387 20.6246C2.63812 20.6246 2.20103 20.4436 1.87872 20.1214C1.5565 19.7991 1.37549 19.362 1.37549 18.9063C1.37549 18.4505 1.5565 18.0134 1.87872 17.6911L5.50012 14.0938" stroke="#807E7C" stroke-width="1.4" stroke-linecap="round" stroke-linejoin="round"/>
</g>
<defs>
<clipPath id="clip0_1132_47">
<rect width="22" height="22" fill="white"/>
</clipPath>
</defs>
</svg>
