<svg fill="none" height="24" viewBox="0 0 24 24" width="24" xmlns="http://www.w3.org/2000/svg">
    <path
        d="m12 16.1998c1.1139 0 2.1822-.4425 2.9698-1.2301.7877-.7877 1.2302-1.856 1.2302-2.9699s-.4425-2.18219-1.2302-2.96984c-.7876-.78766-1.8559-1.23016-2.9698-1.23016s-2.18221.4425-2.96986 1.23016c-.78765.78765-1.23015 1.85594-1.23015 2.96984s.4425 2.1822 1.23015 2.9699c.78765.7876 1.85596 1.2301 2.96986 1.2301zm.7-14.7c0-.18565-.0738-.36369-.205-.49497-.1313-.131275-.3094-.205025-.495-.205025-.1857 0-.3637.07375-.495.205025-.1313.13128-.205.30932-.205.49497v2.128c-1.97935.16554-3.83603 1.027-5.24053 2.43149-1.40449 1.40449-2.26595 3.26117-2.43148 5.24051h-2.128c-.18565 0-.3637.0738-.49498.205-.131272.1313-.205022.3094-.205022.495 0 .1857.07375.3637.205022.495.13128.1313.30933.205.49498.205h2.128c.16553 1.9793 1.02699 3.836 2.43148 5.2405 1.4045 1.4045 3.26118 2.266 5.24053 2.4315v2.128c0 .1857.0737.3637.205.495s.3093.205.495.205c.1856 0 .3637-.0737.495-.205.1312-.1313.205-.3093.205-.495v-2.128c1.9792-.1658 3.8358-1.0274 5.2402-2.4318s2.266-3.261 2.4318-5.2402h2.128c.1856 0 .3637-.0737.495-.205.1312-.1313.205-.3093.205-.495 0-.1856-.0738-.3637-.205-.495-.1313-.1312-.3094-.205-.495-.205h-2.128c-.1655-1.97934-1.027-3.83602-2.4315-5.24051s-3.2612-2.26595-5.2405-2.43149zm-.7 17.5c-1.8565 0-3.63701-.7375-4.94976-2.0502-1.31275-1.3128-2.05025-3.0933-2.05025-4.9498s.7375-3.63699 2.05025-4.94974c1.31275-1.31276 3.09326-2.05026 4.94976-2.05026s3.637.7375 4.9497 2.05026c1.3128 1.31275 2.0503 3.09324 2.0503 4.94974s-.7375 3.637-2.0503 4.9498c-1.3127 1.3127-3.0932 2.0502-4.9497 2.0502z"
        fill="#8c7e6c" />
</svg>