<svg width="22" height="22" viewBox="0 0 22 22" fill="none" xmlns="http://www.w3.org/2000/svg">
<path d="M4.58333 13.5207C3.19 13.5207 2.0625 12.3932 2.0625 10.9998C2.0625 9.6065 3.19 8.479 4.58333 8.479C5.97667 8.479 7.10417 9.6065 7.10417 10.9998C7.10417 12.3932 5.97667 13.5207 4.58333 13.5207ZM4.58333 9.854C3.95083 9.854 3.4375 10.3673 3.4375 10.9998C3.4375 11.6323 3.95083 12.1457 4.58333 12.1457C5.21583 12.1457 5.72917 11.6323 5.72917 10.9998C5.72917 10.3673 5.21583 9.854 4.58333 9.854Z" fill="#9197A3"/>
<path d="M17.4166 13.5207C16.0233 13.5207 14.8958 12.3932 14.8958 10.9998C14.8958 9.6065 16.0233 8.479 17.4166 8.479C18.8099 8.479 19.9374 9.6065 19.9374 10.9998C19.9374 12.3932 18.8099 13.5207 17.4166 13.5207ZM17.4166 9.854C16.7841 9.854 16.2708 10.3673 16.2708 10.9998C16.2708 11.6323 16.7841 12.1457 17.4166 12.1457C18.0491 12.1457 18.5624 11.6323 18.5624 10.9998C18.5624 10.3673 18.0491 9.854 17.4166 9.854Z" fill="#9197A3"/>
<path d="M11.0001 13.5207C9.60675 13.5207 8.47925 12.3932 8.47925 10.9998C8.47925 9.6065 9.60675 8.479 11.0001 8.479C12.3934 8.479 13.5209 9.6065 13.5209 10.9998C13.5209 12.3932 12.3934 13.5207 11.0001 13.5207ZM11.0001 9.854C10.3676 9.854 9.85425 10.3673 9.85425 10.9998C9.85425 11.6323 10.3676 12.1457 11.0001 12.1457C11.6326 12.1457 12.1459 11.6323 12.1459 10.9998C12.1459 10.3673 11.6326 9.854 11.0001 9.854Z" fill="#9197A3"/>
</svg>
