<svg width="22" height="22" viewBox="0 0 22 22" fill="none" xmlns="http://www.w3.org/2000/svg">
<path d="M6.5 2H5.6C2.9 2 2 3.60889 2 5.59529V6.49411V19.0776C2 19.8236 2.846 20.2461 3.44 19.7967L4.979 18.6462C5.339 18.3765 5.843 18.4125 6.167 18.7361L7.661 20.2371C8.012 20.5876 8.588 20.5876 8.939 20.2371L10.451 18.7271C10.766 18.4125 11.27 18.3765 11.621 18.6462L13.16 19.7967C13.754 20.2371 14.6 19.8146 14.6 19.0776V3.79764C14.6 2.80894 15.41 2 16.4 2H6.5ZM10.325 12.5612H6.275C5.906 12.5612 5.6 12.2556 5.6 11.887C5.6 11.5185 5.906 11.2129 6.275 11.2129H10.325C10.694 11.2129 11 11.5185 11 11.887C11 12.2556 10.694 12.5612 10.325 12.5612ZM11 8.96587H5.6C5.231 8.96587 4.925 8.66027 4.925 8.29175C4.925 7.92324 5.231 7.61764 5.6 7.61764H11C11.369 7.61764 11.675 7.92324 11.675 8.29175C11.675 8.66027 11.369 8.96587 11 8.96587Z" fill="#6A6051"/>
<path d="M16.4091 3.34823C17.0031 3.34823 17.5701 3.59091 17.9841 3.99538C18.4161 4.43581 18.6501 5.00206 18.6501 5.59529V7.77044C18.6501 8.43556 18.3531 8.74116 17.6781 8.74116H15.9501V3.80663C15.9501 3.55496 16.1571 3.34823 16.4091 3.34823ZM16.4091 2C15.4101 2 14.6001 2.80894 14.6001 3.80663V10.0894H17.6781C19.1001 10.0894 20.0001 9.19057 20.0001 7.77044V5.59529C20.0001 4.60658 19.5951 3.70776 18.9471 3.05162C18.2901 2.40447 17.3991 2.00899 16.4091 2Z" fill="#6A6051"/>
</svg>
