<svg width="22" height="22" viewBox="0 0 22 22" fill="none" xmlns="http://www.w3.org/2000/svg">
<path d="M20.0001 5.59529V7.77044C20.0001 9.19057 19.1001 10.0894 17.6781 10.0894H14.6001V3.80663C14.6001 2.80894 15.4191 2 16.4181 2C17.3991 2.00899 18.2991 2.40447 18.9471 3.05162C19.5951 3.70776 20.0001 4.60658 20.0001 5.59529Z" stroke="#807E7C" stroke-width="1.4" stroke-miterlimit="10" stroke-linecap="round" stroke-linejoin="round"/>
<path d="M2 6.49411V19.0776C2 19.8236 2.84598 20.2461 3.43998 19.7967L4.979 18.6462C5.339 18.3765 5.843 18.4125 6.167 18.7361L7.66098 20.2371C8.01198 20.5876 8.58802 20.5876 8.93902 20.2371L10.451 18.7271C10.766 18.4125 11.27 18.3765 11.621 18.6462L13.16 19.7967C13.754 20.2371 14.6 19.8146 14.6 19.0776V3.79764C14.6 2.80894 15.41 2 16.4 2H6.5H5.6C2.9 2 2 3.60889 2 5.59529V6.49411Z" stroke="#807E7C" stroke-width="1.4" stroke-miterlimit="10" stroke-linecap="round" stroke-linejoin="round"/>
<path d="M5.6001 8.29175H11.0001" stroke="#807E7C" stroke-width="1.4" stroke-linecap="round" stroke-linejoin="round"/>
<path d="M6.2749 11.8871H10.3249" stroke="#807E7C" stroke-width="1.4" stroke-linecap="round" stroke-linejoin="round"/>
</svg>
