<svg width="22" height="22" viewBox="0 0 22 22" fill="none" xmlns="http://www.w3.org/2000/svg">
<path d="M20.2676 10.9634C20.2676 5.72888 16.0021 1.46338 10.7676 1.46338C5.53308 1.46338 1.26758 5.72888 1.26758 10.9634C1.26758 13.7184 2.45508 16.1979 4.33608 17.9364C4.33608 17.9459 4.33608 17.9459 4.32658 17.9554C4.42158 18.0504 4.53558 18.1264 4.63058 18.2119C4.68758 18.2594 4.73508 18.3069 4.79208 18.3449C4.96308 18.4874 5.15308 18.6204 5.33358 18.7534C5.40008 18.8009 5.45708 18.8389 5.52358 18.8864C5.70408 19.0099 5.89408 19.1239 6.09358 19.2284C6.16008 19.2664 6.23608 19.3139 6.30258 19.3519C6.49258 19.4564 6.69208 19.5514 6.90108 19.6369C6.97708 19.6749 7.05308 19.7129 7.12908 19.7414C7.33808 19.8269 7.54708 19.9029 7.75608 19.9694C7.83208 19.9979 7.90808 20.0264 7.98408 20.0454C8.21208 20.1119 8.44008 20.1689 8.66808 20.2259C8.73458 20.2449 8.80108 20.2639 8.87708 20.2734C9.14308 20.3304 9.40908 20.3684 9.68458 20.3969C9.72258 20.3969 9.76058 20.4064 9.79858 20.4159C10.1216 20.4444 10.4446 20.4634 10.7676 20.4634C11.0906 20.4634 11.4136 20.4444 11.7271 20.4159C11.7651 20.4159 11.8031 20.4064 11.8411 20.3969C12.1166 20.3684 12.3826 20.3304 12.6486 20.2734C12.7151 20.2639 12.7816 20.2354 12.8576 20.2259C13.0856 20.1689 13.3231 20.1214 13.5416 20.0454C13.6176 20.0169 13.6936 19.9884 13.7696 19.9694C13.9786 19.8934 14.1971 19.8269 14.3966 19.7414C14.4726 19.7129 14.5486 19.6749 14.6246 19.6369C14.8241 19.5514 15.0236 19.4564 15.2231 19.3519C15.2991 19.3139 15.3656 19.2664 15.4321 19.2284C15.6221 19.1144 15.8121 19.0099 16.0021 18.8864C16.0686 18.8484 16.1256 18.8009 16.1921 18.7534C16.3821 18.6204 16.5626 18.4874 16.7336 18.3449C16.7906 18.2974 16.8381 18.2499 16.8951 18.2119C16.9996 18.1264 17.1041 18.0409 17.1991 17.9554C17.1991 17.9459 17.1991 17.9459 17.1896 17.9364C19.0801 16.1979 20.2676 13.7184 20.2676 10.9634ZM15.4606 15.6849C12.8861 13.9559 8.66808 13.9559 6.07458 15.6849C5.65658 15.9604 5.31458 16.2834 5.02958 16.6349C3.58558 15.1719 2.69258 13.1674 2.69258 10.9634C2.69258 6.50788 6.31208 2.88838 10.7676 2.88838C15.2231 2.88838 18.8426 6.50788 18.8426 10.9634C18.8426 13.1674 17.9496 15.1719 16.5056 16.6349C16.2301 16.2834 15.8786 15.9604 15.4606 15.6849Z" fill="#6A6051"/>
<path d="M10.7676 6.14661C8.80108 6.14661 7.20508 7.74261 7.20508 9.70912C7.20508 11.6376 8.71558 13.2051 10.7201 13.2621H10.8056H10.8721H10.8911C12.8101 13.1956 14.3206 11.6376 14.3301 9.70912C14.3301 7.74261 12.7341 6.14661 10.7676 6.14661Z" fill="#6A6051"/>
</svg>
