<svg width="22" height="22" viewBox="0 0 22 22" fill="none" xmlns="http://www.w3.org/2000/svg">
<path d="M11.1064 12.3523C11.0887 12.3523 11.0622 12.3523 11.0445 12.3523C11.018 12.3523 10.9827 12.3523 10.9562 12.3523C8.95008 12.2904 7.44775 10.7262 7.44775 8.79968C7.44775 6.83782 9.04729 5.23828 11.0092 5.23828C12.971 5.23828 14.5706 6.83782 14.5706 8.79968C14.5617 10.735 13.0506 12.2904 11.1329 12.3523C11.1152 12.3523 11.1152 12.3523 11.1064 12.3523ZM11.0003 6.55503C9.76313 6.55503 8.7645 7.56247 8.7645 8.79084C8.7645 10.0016 9.71011 10.9825 10.912 11.0267C10.9385 11.0178 11.0268 11.0178 11.1152 11.0267C12.2994 10.9648 13.2273 9.99272 13.2362 8.79084C13.2362 7.56247 12.2375 6.55503 11.0003 6.55503Z" fill="#807E7C"/>
<path d="M11.0006 20.5003C8.62342 20.5003 6.35226 19.6166 4.59365 18.0082C4.43458 17.8668 4.36388 17.6547 4.38156 17.4515C4.49644 16.3999 5.15039 15.4189 6.23737 14.6943C8.87086 12.9445 13.1392 12.9445 15.7639 14.6943C16.8509 15.4278 17.5048 16.3999 17.6197 17.4515C17.6462 17.6636 17.5667 17.8668 17.4076 18.0082C15.649 19.6166 13.3778 20.5003 11.0006 20.5003ZM5.769 17.2747C7.23598 18.5031 9.08295 19.1747 11.0006 19.1747C12.9183 19.1747 14.7653 18.5031 16.2322 17.2747C16.0732 16.7357 15.649 16.2143 15.0215 15.7901C12.8476 14.3408 9.16249 14.3408 6.97086 15.7901C6.34342 16.2143 5.92807 16.7357 5.769 17.2747Z" fill="#807E7C"/>
<path d="M11 20.5C5.75953 20.5 1.5 16.2405 1.5 11C1.5 5.75953 5.75953 1.5 11 1.5C16.2405 1.5 20.5 5.75953 20.5 11C20.5 16.2405 16.2405 20.5 11 20.5ZM11 2.82558C6.49302 2.82558 2.82558 6.49302 2.82558 11C2.82558 15.507 6.49302 19.1744 11 19.1744C15.507 19.1744 19.1744 15.507 19.1744 11C19.1744 6.49302 15.507 2.82558 11 2.82558Z" fill="#807E7C"/>
</svg>
