<svg fill="none" height="14" viewBox="0 0 14 14" width="14" xmlns="http://www.w3.org/2000/svg">
    <path
        d="m7.75 10c0 .1989-.07902.3897-.21967.5303-.14065.1407-.33142.2197-.53033.2197s-.38968-.079-.53033-.2197c-.14065-.1406-.21967-.3314-.21967-.5303 0-.19891.07902-.38968.21967-.53033s.33142-.21967.53033-.21967.38968.07902.53033.21967.21967.33142.21967.53033zm-1.75-5c0-.2685.09-.5205.2485-.699.1505-.1695.387-.301.7515-.301.654 0 1.191.674 1.015 1.379-.09.361-.305.5675-.6285.878l-.089.085c-.3645.353-.7975.822-.7975 1.658 0 .13261.05268.25979.14645.35355.09376.09377.22094.14645.35355.14645s.25979-.05268.35355-.14645c.09377-.09376.14645-.22094.14645-.35355 0-.4135.1765-.6335.4925-.9385l.0955-.091c.307-.29.733-.6925.897-1.349.324-1.295-.639-2.6215-1.985-2.6215-.6355 0-1.149.2435-1.4985.6365-.3415.384-.5015.882-.5015 1.3635 0 .13261.05268.25979.14645.35355.09376.09377.22094.14645.35355.14645s.25979-.05268.35355-.14645c.09377-.09376.14645-.22094.14645-.35355zm-6 2c0-3.866 3.134-7 7-7s7 3.134 7 7-3.134 7-7 7-7-3.134-7-7zm7-6c-3.3135 0-6 2.6865-6 6s2.6865 6 6 6 6-2.6865 6-6-2.6865-6-6-6z"
        fill="#4f4e4d" />
</svg>