<svg width="18" height="18" viewBox="0 0 18 18" fill="none" xmlns="http://www.w3.org/2000/svg">
<path d="M9.78666 13.4668C9.00666 13.4668 8.34666 12.9868 8.09999 12.2468L7.63332 10.8668C7.55999 10.6268 7.37333 10.4468 7.14666 10.3734L5.75999 9.90678C5.01332 9.65345 4.53332 8.98011 4.54666 8.19345C4.55999 7.40678 5.05332 6.74679 5.80666 6.51345L10.8267 4.95345C11.46 4.76011 12.1467 4.92679 12.6133 5.40012C13.08 5.87345 13.2467 6.55345 13.0533 7.18678L11.4933 12.2135C11.26 12.9668 10.6 13.4601 9.80666 13.4735C9.79999 13.4668 9.79332 13.4668 9.78666 13.4668ZM11.3467 5.86679C11.2667 5.86679 11.1933 5.88012 11.1133 5.90012L6.08666 7.46678C5.67999 7.59345 5.53332 7.92678 5.53332 8.20678C5.52666 8.48012 5.66666 8.82679 6.06666 8.96012L7.45332 9.42012C7.98666 9.59345 8.40666 10.0135 8.57999 10.5535L9.03999 11.9268C9.17333 12.3268 9.48666 12.4534 9.79332 12.4668C10.0667 12.4668 10.4067 12.3201 10.5333 11.9134L12.0933 6.88678C12.18 6.60678 12.1067 6.31345 11.9 6.10679C11.7467 5.94679 11.5533 5.86679 11.3467 5.86679Z" fill="#216ADD"/>
<path d="M10.9999 16.1668H6.99992C3.37992 16.1668 1.83325 14.6202 1.83325 11.0002V7.00016C1.83325 3.38016 3.37992 1.8335 6.99992 1.8335H10.9999C14.6199 1.8335 16.1666 3.38016 16.1666 7.00016V11.0002C16.1666 14.6202 14.6199 16.1668 10.9999 16.1668ZM6.99992 2.8335C3.92658 2.8335 2.83325 3.92683 2.83325 7.00016V11.0002C2.83325 14.0735 3.92658 15.1668 6.99992 15.1668H10.9999C14.0733 15.1668 15.1666 14.0735 15.1666 11.0002V7.00016C15.1666 3.92683 14.0733 2.8335 10.9999 2.8335H6.99992Z" fill="#216ADD"/>
</svg>
