<svg fill="none" height="96" viewBox="0 0 96 96" width="96" xmlns="http://www.w3.org/2000/svg"><path d="m48 8c22.092 0 40 17.908 40 40s-17.908 40-40 40-40-17.908-40-40 17.908-40 40-40zm17.268 27.232c-.4355-.4354-1.0163-.6947-1.6312-.7283s-1.2205.161-1.7008.5463l-.204.182-20.232 20.232-7.232-7.232c-.4521-.4522-1.0603-.7141-1.6995-.7316s-1.2608.2105-1.7371.6373c-.4762.4268-.7707 1.0198-.8231 1.6571-.0523.6373.1415 1.2704.5417 1.7692l.182.204 9 9c.4355.4354 1.0163.6947 1.6312.7283s1.2205-.1609 1.7008-.5463l.204-.182 22-22c.2322-.2322.4164-.5078.5421-.8111.1257-.3034.1904-.6285.1904-.9569s-.0647-.6535-.1904-.9569c-.1257-.3033-.3099-.5789-.5421-.8111z" fill="#5a8063"/></svg>