<svg fill="none" height="18" viewBox="0 0 18 18" width="18" xmlns="http://www.w3.org/2000/svg"><path d="m9 .666656c.15103.000007.29695.054703.41077.153973.11383.09927.18785.236401.20839.386031l.00584.085v1.49c1.4348.14411 2.7756.77991 3.7951 1.79962 1.0196 1.01971 1.6552 2.36059 1.7991 3.79538l.0308-.00167h1.4583c.1584.00005.3108.0602.4265.16831s.1861.25611.1969.41409-.0388.31418-.1387.43702c-.1.12283-.2428.20316-.3997.22475l-.085.00583-1.49-.00083c-.1439 1.43494-.7796 2.77594-1.7993 3.79564-1.0198 1.0197-2.3608 1.6554-3.79567 1.7994l.00167.0308v1.4583c-.00005.1584-.06021.3108-.16831.4265-.10811.1157-.25611.1861-.41409.1969-.15799.0108-.31418-.0388-.43702-.1387-.12284-.1-.20316-.2428-.22475-.3997l-.00583-.085.00083-1.49c-1.43491-.1439-2.7759-.7796-3.79562-1.7994-1.01973-1.0197-1.65545-2.3607-1.79938-3.79558l-.03083.00167h-1.45834c-.15835-.00005-.31078-.0602-.426489-.16831s-.186068-.25611-.196862-.41409c-.010793-.15799.038785-.31418.138716-.43702s.242765-.20316.399635-.22475l.085-.00583h1.49c.14412-1.43476.77991-2.77555 1.79962-3.79511s2.3606-1.65516 3.79538-1.79906l-.00166-.03083v-1.45833c0-.16576.06585-.324735.18306-.441945.11721-.117211.27618-.183059.44194-.183059zm0 3.333334c-1.32609 0-2.59785.52678-3.53554 1.46447-.93768.93768-1.46446 2.20945-1.46446 3.53553 0 1.32611.52678 2.59781 1.46446 3.53551.93769.9377 2.20945 1.4645 3.53554 1.4645 1.3261 0 2.5978-.5268 3.5355-1.4645s1.4645-2.2094 1.4645-3.53551c0-1.32608-.5268-2.59785-1.4645-3.53553-.9377-.93769-2.2094-1.46447-3.5355-1.46447zm0 1.66667c.88405 0 1.7319.35119 2.357.97631s.9763 1.47296.9763 2.35702c0 .88405-.3512 1.73191-.9763 2.35701s-1.47295.9763-2.357.9763c-.88406 0-1.7319-.3512-2.35703-.9763-.62512-.6251-.97631-1.47296-.97631-2.35701 0-.88406.35119-1.7319.97631-2.35702.62513-.62512 1.47297-.97631 2.35703-.97631z" fill="#807e7c"/></svg>