<svg width="40" height="40" viewBox="0 0 40 40" fill="none" xmlns="http://www.w3.org/2000/svg">
<path d="M36.6666 17.917C37.35 17.917 37.9166 17.3503 37.9166 16.667V15.0003C37.9166 7.65033 35.6833 5.41699 28.3333 5.41699H17.9166V9.16699C17.9166 9.85033 17.35 10.417 16.6666 10.417C15.9833 10.417 15.4166 9.85033 15.4166 9.16699V5.41699H11.6666C4.31665 5.41699 2.08331 7.65033 2.08331 15.0003V15.8337C2.08331 16.517 2.64998 17.0837 3.33331 17.0837C4.93331 17.0837 6.24998 18.4003 6.24998 20.0003C6.24998 21.6003 4.93331 22.917 3.33331 22.917C2.64998 22.917 2.08331 23.4837 2.08331 24.167V25.0003C2.08331 32.3503 4.31665 34.5837 11.6666 34.5837H15.4166V30.8337C15.4166 30.1503 15.9833 29.5837 16.6666 29.5837C17.35 29.5837 17.9166 30.1503 17.9166 30.8337V34.5837H28.3333C35.6833 34.5837 37.9166 32.3503 37.9166 25.0003C37.9166 24.317 37.35 23.7503 36.6666 23.7503C35.0666 23.7503 33.75 22.4337 33.75 20.8337C33.75 19.2337 35.0666 17.917 36.6666 17.917ZM17.9166 23.617C17.9166 24.3003 17.35 24.867 16.6666 24.867C15.9833 24.867 15.4166 24.3003 15.4166 23.617V16.3837C15.4166 15.7003 15.9833 15.1337 16.6666 15.1337C17.35 15.1337 17.9166 15.7003 17.9166 16.3837V23.617Z" fill="#807E7C"/>
</svg>
