<svg width="22" height="22" viewBox="0 0 22 22" fill="none" xmlns="http://www.w3.org/2000/svg">
<path d="M20.1666 10.3127H18.2966C17.9666 6.82016 15.1799 4.02433 11.6874 3.7035V1.8335C11.6874 1.45766 11.3758 1.146 10.9999 1.146C10.6241 1.146 10.3124 1.45766 10.3124 1.8335V3.7035C6.81992 4.0335 4.02409 6.82016 3.70325 10.3127H1.83325C1.45742 10.3127 1.14575 10.6243 1.14575 11.0002C1.14575 11.376 1.45742 11.6877 1.83325 11.6877H3.70325C4.03325 15.1802 6.81992 17.976 10.3124 18.2968V20.1668C10.3124 20.5427 10.6241 20.8543 10.9999 20.8543C11.3758 20.8543 11.6874 20.5427 11.6874 20.1668V18.2968C15.1799 17.9668 17.9757 15.1802 18.2966 11.6877H20.1666C20.5424 11.6877 20.8541 11.376 20.8541 11.0002C20.8541 10.6243 20.5424 10.3127 20.1666 10.3127ZM10.9999 13.8602C9.42325 13.8602 8.13992 12.5768 8.13992 11.0002C8.13992 9.4235 9.42325 8.14016 10.9999 8.14016C12.5766 8.14016 13.8599 9.4235 13.8599 11.0002C13.8599 12.5768 12.5766 13.8602 10.9999 13.8602Z" fill="#216ADD"/>
</svg>
