<svg width="12" height="12" viewBox="0 0 12 12" fill="none" xmlns="http://www.w3.org/2000/svg">
<path d="M10.535 2.615C9.72996 2.535 8.92496 2.475 8.11496 2.43V2.425L8.00496 1.775C7.92996 1.315 7.81996 0.625 6.64996 0.625H5.33996C4.17496 0.625 4.06496 1.285 3.98496 1.77L3.87996 2.41C3.41496 2.44 2.94996 2.47 2.48496 2.515L1.46496 2.615C1.25496 2.635 1.10496 2.82 1.12496 3.025C1.14496 3.23 1.32496 3.38 1.53496 3.36L2.55496 3.26C5.17496 3 7.81496 3.1 10.465 3.365C10.48 3.365 10.49 3.365 10.505 3.365C10.695 3.365 10.86 3.22 10.88 3.025C10.895 2.82 10.745 2.635 10.535 2.615Z" fill="#8C7E6C"/>
<path d="M9.615 4.07C9.495 3.945 9.33 3.875 9.16 3.875H2.84C2.67 3.875 2.5 3.945 2.385 4.07C2.27 4.195 2.205 4.365 2.215 4.54L2.525 9.67C2.58 10.43 2.65 11.38 4.395 11.38H7.605C9.35 11.38 9.42 10.435 9.475 9.67L9.785 4.545C9.795 4.365 9.73 4.195 9.615 4.07ZM6.83 8.875H5.165C4.96 8.875 4.79 8.705 4.79 8.5C4.79 8.295 4.96 8.125 5.165 8.125H6.83C7.035 8.125 7.205 8.295 7.205 8.5C7.205 8.705 7.035 8.875 6.83 8.875ZM7.25 6.875H4.75C4.545 6.875 4.375 6.705 4.375 6.5C4.375 6.295 4.545 6.125 4.75 6.125H7.25C7.455 6.125 7.625 6.295 7.625 6.5C7.625 6.705 7.455 6.875 7.25 6.875Z" fill="#8C7E6C"/>
</svg>
