<svg width="15" height="16" viewBox="0 0 15 16" fill="none" xmlns="http://www.w3.org/2000/svg">
<path d="M10.625 14.7188H4.375C1.61875 14.7188 0.78125 13.8812 0.78125 11.125V9.875C0.78125 7.11875 1.61875 6.28125 4.375 6.28125H10.625C13.3813 6.28125 14.2188 7.11875 14.2188 9.875V11.125C14.2188 13.8812 13.3813 14.7188 10.625 14.7188ZM4.375 7.21875C2.1375 7.21875 1.71875 7.64375 1.71875 9.875V11.125C1.71875 13.3562 2.1375 13.7812 4.375 13.7812H10.625C12.8625 13.7812 13.2812 13.3562 13.2812 11.125V9.875C13.2812 7.64375 12.8625 7.21875 10.625 7.21875H4.375Z" fill="#707580"/>
<path d="M3.75 7.21875C3.49375 7.21875 3.28125 7.00625 3.28125 6.75V5.5C3.28125 3.6875 3.71875 1.28125 7.5 1.28125C10.3 1.28125 11.7188 2.4875 11.7188 4.875C11.7188 5.13125 11.5063 5.34375 11.25 5.34375C10.9938 5.34375 10.7812 5.13125 10.7812 4.875C10.7812 3.6375 10.4062 2.21875 7.5 2.21875C4.775 2.21875 4.21875 3.53125 4.21875 5.5V6.75C4.21875 7.00625 4.00625 7.21875 3.75 7.21875Z" fill="#707580"/>
<path d="M7.5 12.5312C6.38125 12.5312 5.46875 11.6188 5.46875 10.5C5.46875 9.38125 6.38125 8.46875 7.5 8.46875C8.61875 8.46875 9.53125 9.38125 9.53125 10.5C9.53125 11.6188 8.61875 12.5312 7.5 12.5312ZM7.5 9.40625C6.9 9.40625 6.40625 9.9 6.40625 10.5C6.40625 11.1 6.9 11.5938 7.5 11.5938C8.1 11.5938 8.59375 11.1 8.59375 10.5C8.59375 9.9 8.1 9.40625 7.5 9.40625Z" fill="#707580"/>
</svg>
