<svg width="40" height="40" viewBox="0 0 40 40" fill="none" xmlns="http://www.w3.org/2000/svg">
<circle opacity="0.4" cx="20" cy="20" r="20" fill="#E6EFFA"/>
<path d="M25.9999 21.7139C26.6819 21.7139 27.3359 21.9848 27.8182 22.467C28.3004 22.9493 28.5713 23.6033 28.5713 24.2853V24.8982C28.5713 27.9642 24.9628 30.2853 19.9999 30.2853C15.037 30.2853 11.4285 28.085 11.4285 24.8982V24.2853C11.4285 23.6033 11.6994 22.9493 12.1816 22.467C12.6639 21.9848 13.3179 21.7139 13.9999 21.7139H25.9999ZM19.9999 9.71387C20.6753 9.71387 21.344 9.84689 21.968 10.1053C22.5919 10.3638 23.1589 10.7426 23.6364 11.2202C24.114 11.6977 24.4928 12.2647 24.7513 12.8886C25.0097 13.5126 25.1428 14.1814 25.1428 14.8567C25.1428 15.5321 25.0097 16.2009 24.7513 16.8248C24.4928 17.4488 24.114 18.0157 23.6364 18.4933C23.1589 18.9708 22.5919 19.3497 21.968 19.6081C21.344 19.8666 20.6753 19.9996 19.9999 19.9996C18.6359 19.9996 17.3278 19.4577 16.3633 18.4933C15.3989 17.5288 14.857 16.2207 14.857 14.8567C14.857 13.4928 15.3989 12.1846 16.3633 11.2202C17.3278 10.2557 18.6359 9.71387 19.9999 9.71387Z" fill="white"/>
</svg>
