<svg fill="none" height="78" viewBox="0 0 78 78" width="78" xmlns="http://www.w3.org/2000/svg"><path d="m39.0001.599998c10.1843 0 19.9515 4.045702 27.1529 11.247102s11.2471 16.9686 11.2471 27.1529-4.0457 19.9515-11.2471 27.1529-16.9686 11.2471-27.1529 11.2471-19.9515-4.0457-27.1529-11.2471-11.247102-16.9686-11.247102-27.1529 4.045702-19.9515 11.247102-27.1529 16.9686-11.247102 27.1529-11.247102zm0 50.400002c-.9548 0-1.8705.3793-2.5456 1.0544s-1.0544 1.5908-1.0544 2.5456.3793 1.8705 1.0544 2.5456 1.5908 1.0544 2.5456 1.0544 1.8705-.3793 2.5456-1.0544 1.0544-1.5908 1.0544-2.5456-.3793-1.8705-1.0544-2.5456-1.5908-1.0544-2.5456-1.0544zm0-31.2c-.5617-.0002-1.1057.1967-1.5372.5563-.4316.3596-.7233.8592-.8244 1.4117l-.0384.432v21.6l.0384.432c.1002.5534.3915 1.054.8231 1.4144.4316.3605.9761.558 1.5385.558s1.1068-.1975 1.5385-.558c.4316-.3604.7229-.861.8231-1.4144l.0384-.432v-21.6l-.0384-.432c-.1011-.5525-.3928-1.0521-.8244-1.4117-.4315-.3596-.9755-.5565-1.5372-.5563z" fill="#dd8621"/></svg>