<svg fill="none" height="36" viewBox="0 0 36 36" width="36" xmlns="http://www.w3.org/2000/svg"><path d="m28.2813 7.6604c-1.337-1.35052-2.9296-2.42132-4.6847-3.14992-1.7552-.72861-3.6379-1.10045-5.5383-1.09383-7.9625 0-14.45205 6.48958-14.45205 14.45205 0 2.5521.67084 5.0313 1.925 7.2188l-2.04166 7.4958 7.65621-2.0125c2.1146 1.1521 4.4917 1.7646 6.9125 1.7646 7.9625 0 14.4521-6.4896 14.4521-14.4521 0-3.8646-1.5021-7.4958-4.2291-10.2229zm-10.223 22.225c-2.1583 0-4.2729-.5833-6.125-1.6771l-.4375-.2625-4.54996 1.1958 1.21041-4.4333-.29166-.4521c-1.19912-1.9148-1.83584-4.1282-1.8375-6.3875 0-6.6208 5.39581-12.01663 12.01671-12.01663 3.2083 0 6.227 1.25417 8.4875 3.52917 1.1192 1.11406 2.0062 2.43926 2.6095 3.89876.6033 1.4594.9109 3.0241.905 4.6033.0292 6.6209-5.3666 12.0021-11.9875 12.0021zm6.5917-8.9833c-.3646-.175-2.1437-1.05-2.4646-1.1813-.3354-.1166-.5687-.175-.8166.175-.248.3646-.9334 1.1813-1.1375 1.4146-.2042.2479-.423.2771-.7875.0875-.3646-.175-1.5313-.5687-2.9021-1.7937-1.0792-.9625-1.7938-2.1438-2.0125-2.5084-.2042-.3646-.0292-.5542.1604-.7437.1604-.1604.3646-.423.5396-.6271.175-.2042.2479-.3646.3646-.5979.1166-.2479.0583-.4521-.0292-.6271s-.8167-1.9542-1.1083-2.6833c-.2917-.7-.598-.6125-.8167-.6271h-.7c-.2479 0-.6271.0875-.9625.4521-.3208.3645-1.2542 1.2395-1.2542 3.0187s1.2979 3.5 1.4729 3.7333c.175.248 2.5521 3.8938 6.1688 5.4542.8604.3792 1.5312.5979 2.0562.7583.8605.2771 1.648.2334 2.275.1459.7-.1021 2.1438-.875 2.4355-1.7209.3062-.8458.3062-1.5604.2041-1.7208s-.3208-.2333-.6854-.4083z" fill="#fff"/></svg>